<?xml version="1.0" encoding="UTF-8" standalone="no"?>
<svg width="250px" height="335px" viewBox="0 0 250 335" version="1.1" xmlns="http://www.w3.org/2000/svg" xmlns:xlink="http://www.w3.org/1999/xlink" xmlns:sketch="http://www.bohemiancoding.com/sketch/ns">
    <title>Grunt Logo </title>
    <description>Cartoon warthog</description>
    <defs></defs>
    <g id="Page-1" stroke="none" stroke-width="1" fill="none" fill-rule="evenodd" sketch:type="MSPage">
        <g id="grunt-logo" sketch:type="MSLayerGroup" transform="translate(1.000000, 0.000000)">
            <g id="Layer_1_1_" sketch:type="MSShapeGroup">
                <g id="Group">
                    <path d="M15.892,81.419 C15.892,81.419 21.629,103.546 22.447,110.923 C23.268,118.298 7.696,134.688 7.696,142.884 C7.696,151.08 10.97,165.831 29.002,173.208 C47.034,180.584 49.49,199.432 49.49,210.908 C49.49,222.381 42.935,244.506 42.935,244.506 C42.935,244.506 38.839,299.414 60.964,309.248 C83.089,319.081 78.174,319.081 83.089,319.081 C88.005,319.081 124.066,333.836 145.372,328.099 C166.68,322.362 172.413,315.807 172.413,315.807 C172.413,315.807 193.723,317.444 200.278,298.593 C206.837,279.746 210.932,240.41 208.473,222.379 C206.014,204.347 202.737,180.585 217.487,172.388 C232.242,164.192 247.811,154.361 245.352,146.164 C242.893,137.968 229.784,126.494 229.784,126.494 C229.784,126.494 226.505,106.008 228.962,101.09 C231.419,96.173 246.172,83.877 237.976,74.864 C229.785,65.85 215.029,65.85 215.029,65.85 L196.182,67.487 C196.182,67.487 164.221,38.805 122.425,40.444 C80.631,42.083 54.404,67.487 54.404,67.487 C54.404,67.487 40.474,62.57 28.18,67.487 C15.886,72.406 13.435,67.486 15.892,81.419 L15.892,81.419 Z" id="Shape" fill="#FBA919"></path>
                    <path d="M90.775,203.437 C90.775,203.437 74.546,228.252 62.642,245.862 C60.8,248.586 74.546,248.775 74.546,248.775 L90.775,203.437 L90.775,203.437 Z" id="Shape" fill="#E78724"></path>
                    <path d="M98.502,151.989 C98.502,151.989 93.61,164.194 90.93,170.664 C88.021,177.698 76.93,181.197 76.93,181.197 C76.93,181.197 82.679,175.167 82.679,159.891 C82.679,153.482 90.953,150.934 90.953,150.934 L98.502,151.989 L98.502,151.989 Z" id="Shape" fill="#E78724"></path>
                    <path d="M93.56,158.89 C93.56,158.89 83.537,170.821 64.927,164.139 C46.313,157.459 44.405,133.594 44.405,126.912 C44.405,120.23 79.722,133.594 84.496,136.458 C89.27,139.322 98.332,150.775 93.56,158.89 L93.56,158.89 Z" id="Shape" fill="#E78724"></path>
                    <path d="M23.261,31.399 C23.261,31.399 40.441,28.056 51.894,37.125 C63.352,46.192 66.688,53.353 66.688,53.353 L47.383,68.656 C47.383,68.656 38.055,64.331 35.191,51.921 C32.328,39.512 34.237,33.786 23.261,31.399 L23.261,31.399 Z" id="Shape" fill="#E78724"></path>
                    <path d="M88.549,124.427 C81.152,113.927 68.962,109.347 59.229,108.588 C42.633,107.29 34.754,113.157 34.754,113.157 C34.754,113.157 61.934,114.308 69.768,124.597 C84.352,143.747 105.628,145.303 109.03,141.097 C105.096,141.293 100.768,139.344 96.136,134.964 C93.242,132.224 90.896,127.76 88.549,124.427 L88.549,124.427 Z" id="Shape" fill="#E78724"></path>
                    <path d="M42.666,161.554 C42.666,161.554 12.509,151.187 18.241,140.689 C23.967,130.188 19.409,124.467 19.409,124.467 C19.409,124.467 2.57,137.037 6.861,150.399 C9.498,158.601 13.922,164.539 38.215,175.924 C49.867,197.567 40.621,236.524 41.175,236.707 C42.098,237.014 57.535,229.077 56.481,192.63 C56.16,181.438 55.265,166.159 42.666,161.554 L42.666,161.554 Z" id="Shape" fill="#E78724"></path>
                    <path d="M82.184,50.074 C69.539,56.498 52.216,65.444 52.216,65.444 L59.034,68.855 C58.383,69.909 58.069,70.538 58.069,70.538 L65.067,73.72 C65.067,73.72 82.15,86.095 92.617,94.051 C89.127,83.305 78.883,66.423 78.883,66.423 C78.883,66.423 75.98,58.666 82.184,50.074 L82.184,50.074 Z" id="Shape" fill="#E78724"></path>
                    <path d="M124.191,311.934 C85.325,311.934 72.16,292.203 72.16,292.203 L78.234,306.994 C80.53,313.393 105.022,333.305 124.132,333.305" id="Shape" fill="#E78724"></path>
                    <path d="M76.419,278.871 C76.419,278.871 79.995,300.725 94.313,300.725 C106.48,300.725 110.065,282.265 110.065,278.45 L76.419,278.871 L76.419,278.871 Z" id="Shape" fill="#E78724"></path>
                    <path d="M52.592,245.912 C53.864,242.41 58.318,228.252 59.749,215.367 C61.464,199.935 60.839,177.364 60.839,177.364 C60.839,177.364 57.019,192.159 53.678,194.55 C50.339,196.935 44.133,213.16 44.133,213.16 C44.133,213.16 40.809,237.316 39.227,245.435 C43.605,246.312 47.291,243.732 52.592,245.912 L52.592,245.912 Z" id="Shape" fill="#E78724"></path>
                    <path d="M18.016,150.162 C18.016,150.162 26.127,147.296 28.516,129.64 C30.901,111.98 25.65,96.708 25.65,96.708 C25.65,96.708 26.127,121.048 23.265,125.822 C20.399,130.593 18.016,132.025 14.673,138.231 C11.33,144.438 16.104,148.252 18.016,150.162 L18.016,150.162 Z" id="Shape" fill="#E78724"></path>
                    <path d="M27.701,35.576 L26.045,34.527 C21.162,34.692 27.701,35.576 27.701,35.576 L27.701,35.576 Z" id="Shape" fill="#FDC168"></path>
                    <path d="M88.786,44.846 C88.786,44.846 81.152,43.574 77.332,37.848 C73.512,32.12 62.696,20.664 45.453,20.536 C28.211,20.407 11.152,25.119 11.152,25.119 L26.043,34.528 C27.618,34.477 30.372,34.498 34.926,34.65 C53.614,35.271 56.491,53.756 56.491,53.756 L122.353,44.687" id="Shape" fill="#FBA919"></path>
                    <path d="M95.151,146.942 C95.151,146.942 86.241,155.852 72.558,152.986 C58.875,150.124 50.601,144.078 49.965,133.577 C49.329,123.077 52.831,118.941 52.831,118.941 C52.831,118.941 68.102,123.717 75.424,130.081 C82.742,136.443 88.15,146.625 95.151,146.942 L95.151,146.942 Z" id="Shape" fill="#FFFFFF"></path>
                    <path d="M84.368,143.759 C84.368,143.759 76.641,147.289 68.004,144.414 C56.698,140.643 55.945,128.885 55.945,128.885 C55.945,128.885 49.009,149.239 68.455,153.157 C84.052,156.299 93.276,147.261 93.276,147.261 L84.368,143.759 L84.368,143.759 Z" id="Shape" fill="#C9C9C9"></path>
                    <path d="M89.859,40.528 C89.028,23.072 103.338,9.169 108.296,8.577 C108.57,11.535 108.02,23.073 112.977,26.621 C114.42,17.197 119.3,6.807 138.57,0 C134.443,10.946 138.019,20.115 139.722,24.365 C152.881,12.421 161.747,14.395 161.747,14.395 C161.747,14.395 152.604,30.172 156.18,40.524 C129.764,38.453 89.988,43.331 89.859,40.528 L89.859,40.528 Z" id="Shape" fill="#463014"></path>
                    <path d="M33.857,67.117 C27.554,61.888 32.252,57.035 31.754,51.094 C31.483,47.933 31.233,44.95 30.191,43.305 C24.391,34.146 10.708,31.367 10.571,31.338 L4.149,30.08 L8.4,25.107 C8.951,24.463 26.409,7.806 53.425,16.528 C72.323,22.623 86.313,43.291 86.834,44.126 L77.358,48.582 C77.247,48.406 66.187,28.979 49.974,23.751 C36.868,19.522 24.789,23.545 19.615,26.182 C25.115,28.378 32.306,32.377 36.639,39.218 C38.683,42.449 39.028,46.517 39.361,50.456 C39.8,55.671 40.211,60.594 44.049,63.782 L33.857,67.117 L33.857,67.117 Z" id="Shape" fill="#463014"></path>
                    <path d="M17.023,143.45 C17.023,143.45 24.964,133.603 27.316,114.442 C28.24,106.895 26.599,92.009 23.973,86.282 C24.45,100.361 20.871,114.442 20.871,114.442 C20.871,114.442 18.458,140.586 17.023,143.45 L17.023,143.45 Z" id="Shape" fill="#463014"></path>
                    <path d="M58.896,57.172 C58.892,57.151 56.348,46.034 49.295,40.422 C39.346,32.508 27.198,36.718 27.081,36.755 L25.317,31.306 C25.905,31.115 39.79,26.74 52.586,35.735 C65.459,44.781 67.004,52.981 67.138,53.887 L58.896,57.172 L58.896,57.172 Z" id="Shape" fill="#463014"></path>
                    <path d="M41.964,136.388 C41.964,136.388 37.798,130.424 38.547,123.865 C38.92,120.626 40.421,117.301 43.101,116.121 C48.081,113.933 50.288,119.578 50.288,119.578 C50.288,119.578 43.279,121.308 41.964,136.388 L41.964,136.388 Z" id="Shape" fill="#463014"></path>
                    <path d="M87.707,145.478 C87.881,145.803 87.97,145.985 87.97,145.985 C87.97,145.985 74.976,155.737 61.659,145.841 C54.531,140.539 55.204,127.424 57.388,121.862 C63.067,123.149 67.884,125.469 71.91,128.178 C66.822,123.637 62.368,120.294 62.38,120.217 L56.597,118.58 L45.357,114.726 C45.213,115.583 41.113,134.8 52.947,147.894 C58.192,153.7 82.782,166.702 94.457,144.47 L87.707,145.478 L87.707,145.478 Z" id="Shape" fill="#463014"></path>
                    <path d="M86.49,146.907 C93.806,158.042 112.265,151.679 111.947,139.907 C111.947,139.907 99.613,146.714 88.716,134.181 C82.354,126.864 61.968,106.689 34.322,113.394 C53.414,117.592 78.689,135.035 86.49,146.907 L86.49,146.907 Z" id="Shape" fill="#463014"></path>
                    <path d="M31.739,178.333 C33.499,179.35 39.706,185.778 39.71,195.392 C39.71,200.213 39.23,224.432 36.844,239.228 C40.433,241.56 42.933,242.056 46.507,244.433 C48.296,227.297 49.579,202.461 48.981,192.435 C48.297,181.006 42.178,173.336 36.503,170.065 C34.726,169.043 32.869,168.038 30.999,167.027 C21.279,161.775 11.228,156.342 11.228,147.065 C11.228,139.808 14.049,137.538 17.036,135.132 L17.358,134.871 C19.34,133.27 21.583,131.454 22.912,128.472 C26.538,120.319 27.131,99.551 22.912,94.279 C20.809,91.652 15.174,82.818 16.794,76.882 C17.411,74.616 18.838,72.937 21.161,71.747 C23.619,70.488 26.94,69.85 31.028,69.85 C39.058,69.85 47.964,72.294 52.559,73.749 C68.978,78.953 88.79,93.957 94.469,98.432 C94.632,98.557 94.728,98.63 94.745,98.642 L98.379,101.169 L96.106,97.366 C95.966,97.129 81.572,73.461 55.835,64.783 C50.828,63.095 40.991,60.262 31.324,60.262 C25.568,60.262 20.684,61.267 16.817,63.247 C12.104,65.658 8.912,69.505 7.586,74.368 C4.336,86.289 14.921,99.562 15.282,99.986 C16.516,102.189 17.039,118.192 14.188,124.597 C13.796,125.481 12.721,126.35 11.36,127.448 C10.934,127.793 10.457,128.151 9.952,128.534 C5.93,131.57 -0.152,136.157 -0.152,146.73 C-0.152,161.197 14.51,169.041 26.293,175.348 C28.226,176.388 30.071,177.372 31.739,178.333 L31.739,178.333 Z" id="Shape" fill="#463014"></path>
                    <g transform="translate(2.000000, 13.000000)" id="Shape" fill="#463014">
                        <path d="M31.857,54.117 C25.554,48.888 30.252,44.035 29.754,38.094 C29.483,34.933 29.233,31.95 28.191,30.305 C22.391,21.146 8.708,18.367 8.571,18.338 L2.149,17.08 L6.4,12.107 C6.951,11.463 24.409,-5.194 51.425,3.528 C70.323,9.623 84.313,30.291 84.834,31.126 L75.358,35.582 C75.247,35.406 64.187,15.979 47.974,10.751 C34.868,6.522 22.789,10.545 17.615,13.182 C23.115,15.378 30.306,19.377 34.639,26.218 C36.683,29.449 37.028,33.517 37.361,37.456 C37.8,42.671 38.211,47.594 42.049,50.782 L31.857,54.117 L31.857,54.117 Z"></path>
                        <path d="M31.652,55.188 L31.245,54.851 C26.571,50.972 27.4,47.151 28.203,43.454 C28.568,41.748 28.953,39.984 28.797,38.175 C28.542,35.133 28.297,32.263 27.381,30.814 C21.858,22.094 8.511,19.3 8.379,19.273 L0.358,17.7 L5.675,11.484 C5.772,11.368 16.981,0.053 35.965,0.053 C41.14,0.053 46.442,0.914 51.717,2.618 C71.441,8.978 85.512,30.407 85.645,30.619 L86.214,31.529 L75.005,36.801 L74.555,36.087 C73.349,34.031 62.721,16.504 47.686,11.654 C43.993,10.462 40.103,9.86 36.126,9.86 C28.923,9.86 23.082,11.823 19.974,13.141 C25.168,15.48 31.467,19.417 35.453,25.703 C37.62,29.127 37.971,33.312 38.315,37.355 C38.737,42.383 39.136,47.111 42.663,50.039 L43.994,51.143 L31.652,55.188 L31.652,55.188 Z"></path>
                    </g>
                    <g transform="translate(24.000000, 29.000000)" id="Shape" fill="#463014">
                        <path d="M34.896,28.172 C34.892,28.151 32.348,17.034 25.295,11.422 C15.346,3.508 3.198,7.718 3.081,7.755 L1.317,2.306 C1.905,2.115 15.79,-2.26 28.586,6.735 C41.459,15.781 43.004,23.981 43.138,24.887 L34.896,28.172 L34.896,28.172 Z"></path>
                        <path d="M34.212,29.472 L33.964,28.378 C33.938,28.271 31.443,17.534 24.698,12.171 C20.854,9.11 16.218,7.556 10.927,7.556 C6.797,7.556 3.728,8.542 3.393,8.658 L2.481,8.961 L0.115,1.692 L1.022,1.399 C1.429,1.27 5.114,0.121 10.327,0.121 C17.204,0.121 23.706,2.139 29.138,5.953 C42.333,15.226 43.944,23.801 44.082,24.747 L44.198,25.495 L34.212,29.472 L34.212,29.472 Z M10.928,5.65 C16.58,5.65 21.757,7.388 25.889,10.674 C31.878,15.444 34.695,23.865 35.547,26.884 L42.039,24.297 C41.451,22.005 38.863,15.126 28.039,7.517 C22.86,3.877 16.903,2.033 10.328,2.033 C6.72,2.033 3.917,2.607 2.532,2.957 L3.703,6.576 C5.061,6.211 7.674,5.65 10.928,5.65 L10.928,5.65 Z"></path>
                    </g>
                    <path d="M93.715,295.482 L93.715,295.482 C90.895,295.482 88.017,294.459 86.022,292.732 C84.495,291.416 79.331,286.673 77.054,280.862 C76.204,278.689 76.395,276.951 77.628,275.7 C78.478,274.843 80.242,273.818 83.823,273.818 L86.371,273.814 C89.407,273.811 94.519,273.811 98.888,273.811 L103.077,273.811 C105.801,273.811 107.754,274.4 108.877,275.548 C110.319,277.03 109.857,278.915 109.454,279.907 C108.752,281.645 105.847,287.301 100.929,292.559 C99.168,294.443 96.605,295.482 93.715,295.482 L93.715,295.482 Z" id="Shape" fill="#463014"></path>
                    <path d="M96.671,147.562 L86.489,146.907 C86.489,146.907 89.092,151.495 90.778,157.429 C92.682,164.141 89.037,173.95 89.037,173.95 C89.037,173.95 102.613,158.58 96.671,147.562 L96.671,147.562 Z" id="Shape" fill="#463014"></path>
                    <path d="M83.961,322.367 C47.722,319.582 34.972,285.339 34.972,278.207 L44.436,278.211 L39.704,278.207 L44.436,278.207 C44.483,281.29 54.114,310.582 84.686,312.933 L83.961,322.367 L83.961,322.367 Z" id="Shape" fill="#463014"></path>
                    <path d="M73.777,261.016 C73.211,257.743 73.152,254.639 73.843,251.589 C71.089,249.519 66.147,248.75 62.439,247.548 C59.407,245.629 43.891,249.515 32.634,235.892 C18.53,218.833 21.498,208.648 21.498,208.648 C17.882,212.666 14.377,211.135 8.865,229.869 C3.345,248.607 11.456,261.67 26.573,274.784 C33.715,280.979 43.811,283.531 52.495,284.508 C49.586,281.587 57.464,281.295 62.894,279.263 C62.461,274.879 63.186,270.623 66.455,267.196 C68.426,265.13 70.962,263.895 73.593,262.911 C73.74,262.571 73.864,262.257 74.004,261.931 C73.917,261.633 73.832,261.332 73.777,261.016 L73.777,261.016 Z" id="Shape" fill="#FFFFFF"></path>
                    <path d="M62.821,279.149 C62.507,278.229 62.27,277.291 62.037,276.347 C61.786,275.316 60.536,272.395 62.077,275.73 C61.681,274.876 61.422,273.996 61.231,273.109 C36.749,273.078 15.45,256.269 19.565,220.93 C16.36,216.675 11.872,229.51 11.872,229.51 C11.872,229.51 -0.384,265.098 31.27,278.891 C41.817,283.491 51.138,286.788 53.337,285.457 C57.918,286.388 62.053,283.194 63.604,281.094 C63.313,280.449 63.048,279.803 62.821,279.149 L62.821,279.149 Z" id="Shape" fill="#C9C9C9"></path>
                    <path d="M73.336,255.892 C73.374,252.909 73.983,250.02 75.425,247.141 C75.526,246.943 75.643,246.753 75.751,246.56 C66.33,246.479 55.48,245.577 46.241,241.879 C36.086,237.817 23.383,223.92 21.2,207.592 C21.2,207.592 2.075,222.35 7.695,253.938 C12.97,283.6 37.791,293.27 66.099,294.906 C66.114,294.714 62.915,288.106 63.926,284.061 C47.852,285.229 29.877,279.019 21.2,264.741 C13.256,251.673 15.484,229.362 18.749,226.093 C26.713,251.222 55.369,256.33 73.336,255.892 L73.336,255.892 Z" id="Shape" fill="#463014"></path>
                    <path d="M76.302,237.902 C71.208,252.851 60.803,264.949 60.803,264.949 C60.803,264.949 75.116,264.298 75.906,261.765 C76.491,259.898 88.83,231.013 93.566,197.176 C89.111,204.495 76.738,236.622 76.302,237.902 L76.302,237.902 Z" id="Shape" fill="#463014"></path>
                    <path d="M157.393,203.437 C157.393,203.437 173.618,228.252 185.526,245.862 C187.368,248.586 173.618,248.775 173.618,248.775 L157.393,203.437 L157.393,203.437 Z" id="Shape" fill="#E78724"></path>
                    <path d="M149.664,151.989 C149.664,151.989 154.557,164.194 157.233,170.664 C160.142,177.698 171.232,181.197 171.232,181.197 C171.232,181.197 165.484,175.167 165.484,159.891 C165.484,153.482 157.211,150.934 157.211,150.934 L149.664,151.989 L149.664,151.989 Z" id="Shape" fill="#E78724"></path>
                    <path d="M154.605,158.89 C154.605,158.89 164.628,170.821 183.243,164.139 C201.858,157.457 203.765,133.594 203.765,126.912 C203.765,120.23 168.448,133.594 163.674,136.458 C158.9,139.322 149.834,150.775 154.605,158.89 L154.605,158.89 Z" id="Shape" fill="#E78724"></path>
                    <path d="M224.906,31.399 C224.906,31.399 207.726,28.056 196.269,37.125 C184.816,46.192 181.474,53.353 181.474,53.353 L200.78,68.655 C200.78,68.655 210.112,64.33 212.976,51.92 C215.838,39.512 213.93,33.786 224.906,31.399 L224.906,31.399 Z" id="Shape" fill="#E78724"></path>
                    <path d="M159.618,124.427 C167.015,113.927 179.201,109.347 188.938,108.588 C205.535,107.29 213.41,113.157 213.41,113.157 C213.41,113.157 186.23,114.308 178.395,124.597 C163.81,143.747 142.541,145.303 139.139,141.097 C143.072,141.293 147.402,139.344 152.031,134.964 C154.924,132.224 157.271,127.76 159.618,124.427 L159.618,124.427 Z" id="Shape" fill="#E78724"></path>
                    <path d="M205.501,161.554 C205.501,161.554 235.654,151.187 229.927,140.689 C224.201,130.188 228.755,124.467 228.755,124.467 C228.755,124.467 245.598,137.037 241.303,150.399 C238.666,158.601 234.242,164.539 209.949,175.924 C198.297,197.567 207.543,236.524 206.992,236.707 C206.068,237.014 190.633,229.077 191.687,192.63 C192.007,181.438 192.902,166.159 205.501,161.554 L205.501,161.554 Z" id="Shape" fill="#E78724"></path>
                    <path d="M165.984,50.074 C178.625,56.498 195.951,65.444 195.951,65.444 L189.134,68.855 C189.785,69.909 190.1,70.538 190.1,70.538 L183.102,73.72 C183.102,73.72 166.018,86.095 155.551,94.051 C159.037,83.305 169.281,66.423 169.281,66.423 C169.281,66.423 172.189,58.666 165.984,50.074 L165.984,50.074 Z" id="Shape" fill="#E78724"></path>
                    <path d="M123.978,311.934 C162.838,311.934 176.003,292.203 176.003,292.203 L169.933,306.994 C167.637,313.393 143.143,333.305 124.037,333.305" id="Shape" fill="#E78724"></path>
                    <path d="M171.748,278.871 C171.748,278.871 168.168,300.725 153.854,300.725 C141.689,300.725 138.103,282.265 138.103,278.45 L171.748,278.871 L171.748,278.871 Z" id="Shape" fill="#E78724"></path>
                    <path d="M195.575,245.912 C194.303,242.41 189.849,228.252 188.414,215.367 C186.699,199.935 187.328,177.364 187.328,177.364 C187.328,177.364 191.147,192.159 194.484,194.55 C197.828,196.935 204.03,213.16 204.03,213.16 C204.03,213.16 207.354,237.316 208.936,245.435 C204.559,246.312 200.877,243.732 195.575,245.912 L195.575,245.912 Z" id="Shape" fill="#E78724"></path>
                    <path d="M230.154,150.162 C230.154,150.162 222.039,147.296 219.654,129.64 C217.269,111.98 222.519,96.708 222.519,96.708 C222.519,96.708 222.039,121.048 224.904,125.822 C227.77,130.595 230.154,132.025 233.496,138.231 C236.834,144.437 232.062,148.252 230.154,150.162 L230.154,150.162 Z" id="Shape" fill="#E78724"></path>
                    <path d="M220.465,35.576 L222.124,34.527 C227.008,34.692 220.465,35.576 220.465,35.576 L220.465,35.576 Z" id="Shape" fill="#FDC168"></path>
                    <path d="M159.378,44.846 C159.378,44.846 167.016,43.574 170.832,37.848 C174.651,32.12 185.471,20.664 202.715,20.536 C219.957,20.407 237.016,25.119 237.016,25.119 L222.124,34.528 C220.549,34.477 217.795,34.498 213.237,34.65 C194.552,35.271 191.675,53.756 191.675,53.756 L125.815,44.687" id="Shape" fill="#FBA919"></path>
                    <path d="M153.016,146.942 C153.016,146.942 161.926,155.852 175.606,152.986 C189.29,150.124 197.563,144.078 198.2,133.577 C198.835,123.077 195.337,118.941 195.337,118.941 C195.337,118.941 180.062,123.717 172.744,130.081 C165.426,136.445 160.018,146.625 153.016,146.942 L153.016,146.942 Z" id="Shape" fill="#FFFFFF"></path>
                    <path d="M163.796,143.759 C163.796,143.759 171.526,147.289 180.16,144.414 C191.469,140.643 192.222,128.885 192.222,128.885 C192.222,128.885 199.154,149.239 179.708,153.157 C164.114,156.299 154.888,147.261 154.888,147.261 L163.796,143.759 L163.796,143.759 Z" id="Shape" fill="#C9C9C9"></path>
                    <path d="M214.309,67.117 C220.612,61.888 215.918,57.035 216.416,51.094 C216.682,47.933 216.932,44.95 217.975,43.305 C223.776,34.146 237.458,31.367 237.599,31.338 L244.022,30.08 L239.77,25.107 C239.219,24.463 221.761,7.806 194.741,16.528 C175.846,22.623 161.856,43.291 161.336,44.126 L170.808,48.582 C170.923,48.406 181.984,28.979 198.197,23.751 C211.302,19.522 223.381,23.545 228.552,26.182 C223.055,28.378 215.861,32.377 211.528,39.218 C209.484,42.449 209.142,46.517 208.81,50.456 C208.371,55.671 207.956,60.594 204.117,63.782 L214.309,67.117 L214.309,67.117 Z" id="Shape" fill="#463014"></path>
                    <path d="M231.14,143.45 C231.14,143.45 223.203,133.603 220.851,114.442 C219.927,106.895 221.565,92.009 224.19,86.282 C223.713,100.361 227.295,114.442 227.295,114.442 C227.295,114.442 229.709,140.586 231.14,143.45 L231.14,143.45 Z" id="Shape" fill="#463014"></path>
                    <path d="M189.271,57.172 C189.275,57.151 191.819,46.034 198.873,40.422 C208.821,32.508 220.97,36.718 221.083,36.755 L222.852,31.306 C222.262,31.115 208.379,26.74 195.579,35.735 C182.706,44.781 181.165,52.981 181.027,53.887 L189.271,57.172 L189.271,57.172 Z" id="Shape" fill="#463014"></path>
                    <path d="M206.203,136.388 C206.203,136.388 210.369,130.424 209.616,123.865 C209.247,120.626 207.746,117.301 205.066,116.121 C200.086,113.933 197.878,119.578 197.878,119.578 C197.878,119.578 204.888,121.308 206.203,136.388 L206.203,136.388 Z" id="Shape" fill="#463014"></path>
                    <path d="M160.461,145.478 C160.287,145.803 160.197,145.985 160.197,145.985 C160.197,145.985 173.187,155.737 186.504,145.841 C193.637,140.539 192.963,127.424 190.775,121.862 C185.099,123.149 180.283,125.469 176.255,128.178 C181.344,123.637 185.798,120.294 185.782,120.217 L191.569,118.58 L202.808,114.728 C202.952,115.585 207.051,134.802 195.213,147.896 C189.969,153.702 165.379,166.704 153.707,144.472 L160.461,145.478 L160.461,145.478 Z" id="Shape" fill="#463014"></path>
                    <path d="M161.674,146.907 C154.358,158.042 135.904,151.679 136.223,139.907 C136.223,139.907 148.553,146.714 159.45,134.181 C165.812,126.864 186.202,106.689 213.847,113.394 C194.756,117.592 169.479,135.035 161.674,146.907 L161.674,146.907 Z" id="Shape" fill="#463014"></path>
                    <path d="M216.431,178.333 C214.67,179.35 208.46,185.778 208.46,195.392 C208.456,200.213 208.937,224.432 211.326,239.228 C207.736,241.56 205.236,242.056 201.662,244.433 C199.873,227.297 198.586,202.461 199.188,192.435 C199.871,181.006 205.988,173.336 211.662,170.065 C213.439,169.043 215.297,168.038 217.171,167.027 C226.891,161.775 236.942,156.342 236.942,147.065 C236.942,139.808 234.118,137.538 231.131,135.132 L230.813,134.871 C228.831,133.27 226.584,131.454 225.259,128.472 C221.632,120.319 221.037,99.551 225.255,94.279 C227.358,91.652 232.997,82.818 231.377,76.882 C230.756,74.616 229.328,72.937 227.006,71.747 C224.547,70.488 221.231,69.85 217.139,69.85 C209.114,69.85 200.203,72.294 195.612,73.749 C179.193,78.953 159.381,93.957 153.698,98.432 C153.536,98.557 153.442,98.63 153.424,98.642 L149.788,101.169 L152.061,97.366 C152.205,97.129 166.596,73.461 192.332,64.783 C197.34,63.095 207.176,60.262 216.844,60.262 C222.6,60.262 227.479,61.267 231.35,63.247 C236.064,65.658 239.254,69.505 240.582,74.368 C243.832,86.289 233.246,99.562 232.885,99.986 C231.651,102.189 231.129,118.192 233.976,124.597 C234.368,125.481 235.443,126.35 236.807,127.448 C237.233,127.793 237.706,128.151 238.215,128.534 C242.238,131.57 248.317,136.157 248.317,146.73 C248.317,161.197 233.655,169.041 221.876,175.348 C219.941,176.388 218.094,177.372 216.431,178.333 L216.431,178.333 Z" id="Shape" fill="#463014"></path>
                    <path d="M198.94,65.415 C196.608,61.465 190.644,53.838 176.898,47.136 C161.558,39.659 143.804,35.864 124.121,35.855 L124.121,35.851 L124.083,35.851 L124.045,35.851 L124.045,35.853 C104.359,35.863 86.602,39.658 71.266,47.134 C57.52,53.837 51.558,61.463 49.224,65.413 L48.223,66.738 L59.994,69.358 L60.367,68.887 L60.564,68.455 C60.746,67.677 62.324,63.477 75.448,57.077 C89.478,50.234 105.842,46.765 124.081,46.759 C142.322,46.765 158.679,50.234 172.708,57.077 C185.833,63.477 187.416,67.677 187.596,68.455 L187.792,68.887 L188.161,69.358 L199.936,66.738 L198.94,65.415 L198.94,65.415 Z" id="Shape" fill="#463014"></path>
                    <g transform="translate(160.000000, 13.000000)" id="Shape" fill="#463014">
                        <path d="M54.309,54.117 C60.612,48.888 55.918,44.035 56.416,38.094 C56.682,34.933 56.932,31.95 57.975,30.305 C63.776,21.146 77.458,18.367 77.599,18.338 L84.022,17.08 L79.77,12.107 C79.219,11.463 61.761,-5.194 34.741,3.528 C15.846,9.623 1.856,30.291 1.336,31.126 L10.808,35.582 C10.923,35.406 21.984,15.979 38.197,10.751 C51.302,6.522 63.381,10.545 68.552,13.182 C63.055,15.378 55.861,19.377 51.528,26.218 C49.484,29.449 49.142,33.517 48.81,37.456 C48.371,42.671 47.956,47.594 44.117,50.782 L54.309,54.117 L54.309,54.117 Z"></path>
                        <path d="M42.178,51.147 L43.504,50.043 C47.034,47.115 47.43,42.386 47.856,37.359 C48.198,33.314 48.551,29.129 50.718,25.707 C54.7,19.423 61.004,15.485 66.197,13.144 C63.088,11.827 57.246,9.864 50.042,9.864 C46.063,9.864 42.18,10.466 38.486,11.658 C23.447,16.508 12.82,34.035 11.617,36.091 L11.166,36.804 L-0.043,31.533 L0.527,30.623 C0.659,30.411 14.726,8.982 34.451,2.622 C39.726,0.918 45.027,0.058 50.207,0.058 C69.19,0.058 80.4,11.375 80.496,11.489 L85.813,17.705 L77.791,19.278 C77.658,19.305 64.312,22.097 58.785,30.819 C57.869,32.269 57.629,35.136 57.369,38.18 C57.218,39.99 57.598,41.754 57.968,43.459 C58.77,47.156 59.598,50.98 54.922,54.856 L54.516,55.193 L42.178,51.147 L42.178,51.147 Z"></path>
                    </g>
                    <g transform="translate(180.000000, 29.000000)" id="Shape" fill="#463014">
                        <path d="M9.271,28.172 C9.275,28.151 11.819,17.034 18.873,11.422 C28.821,3.508 40.97,7.718 41.083,7.755 L42.852,2.306 C42.262,2.115 28.379,-2.26 15.579,6.735 C2.706,15.781 1.165,23.981 1.027,24.887 L9.271,28.172 L9.271,28.172 Z"></path>
                        <path d="M-0.025,25.495 L0.086,24.747 C0.226,23.801 1.838,15.228 15.031,5.953 C20.459,2.139 26.963,0.121 33.84,0.121 C39.056,0.121 42.741,1.268 43.149,1.399 L44.055,1.692 L41.69,8.961 L40.777,8.658 C40.436,8.543 37.368,7.556 33.24,7.556 C27.95,7.556 23.317,9.108 19.473,12.171 C12.727,17.536 10.23,28.272 10.207,28.378 L9.959,29.47 L-0.025,25.495 L-0.025,25.495 Z M40.465,6.576 L41.64,2.957 C40.254,2.605 37.448,2.033 33.84,2.033 C27.266,2.033 21.307,3.879 16.131,7.517 C5.303,15.128 2.715,22.005 2.128,24.297 L8.625,26.884 C9.475,23.863 12.289,15.442 18.281,10.674 C22.416,7.388 27.587,5.65 33.239,5.65 C36.489,5.65 39.107,6.211 40.465,6.576 L40.465,6.576 Z"></path>
                    </g>
                    <path d="M147.242,292.559 C142.325,287.302 139.416,281.645 138.713,279.907 C138.311,278.917 137.853,277.03 139.295,275.548 C140.419,274.4 142.367,273.811 145.091,273.811 L149.283,273.811 C153.652,273.811 158.761,273.811 161.799,273.814 L164.347,273.818 C167.926,273.818 169.689,274.842 170.538,275.7 C171.772,276.949 171.965,278.687 171.115,280.862 C168.838,286.674 163.673,291.417 162.146,292.732 C160.146,294.459 157.275,295.482 154.455,295.482 L154.455,295.482 C151.564,295.482 149.003,294.443 147.242,292.559 L147.242,292.559 Z" id="Shape" fill="#463014"></path>
                    <path d="M151.498,147.562 L161.674,146.907 C161.674,146.907 159.075,151.495 157.389,157.429 C155.485,164.141 159.13,173.95 159.13,173.95 C159.13,173.95 145.553,158.58 151.498,147.562 L151.498,147.562 Z" id="Shape" fill="#463014"></path>
                    <path d="M124.085,111.211 C117.596,111.211 109.135,111.033 102.787,106.471 C102.787,106.471 111.099,121.042 124.074,121.042 L124.085,119.198 L124.096,121.042 C137.072,121.042 145.383,106.471 145.383,106.471 C139.035,111.033 130.568,111.211 124.085,111.211 L124.085,111.211 Z" id="Shape" fill="#E78724"></path>
                    <path d="M141.952,111.141 C135.443,115.08 129.63,116.445 124.085,116.566 C118.539,116.445 112.728,115.08 106.218,111.141 C106.218,111.141 115.697,122.708 124.037,122.797 L124.037,122.804 C124.052,122.804 124.067,122.8 124.084,122.8 C124.099,122.8 124.114,122.804 124.131,122.804 L124.131,122.797 C132.469,122.708 141.952,111.141 141.952,111.141 L141.952,111.141 Z" id="Shape" fill="#463014"></path>
                    <path d="M164.207,322.367 L163.481,312.932 C194.046,310.581 203.677,281.289 203.727,278.206 L213.191,278.206 C213.195,285.337 200.441,319.582 164.207,322.367 L164.207,322.367 Z" id="Shape" fill="#463014"></path>
                    <path d="M174.389,261.016 C174.958,257.743 175.013,254.639 174.323,251.589 C177.081,249.519 182.019,248.75 185.727,247.548 C188.759,245.629 204.279,249.515 215.536,235.892 C229.64,218.833 226.668,208.648 226.668,208.648 C230.287,212.666 233.789,211.135 239.305,229.869 C244.825,248.607 236.71,261.67 221.593,274.784 C214.452,280.979 204.355,283.531 195.671,284.508 C198.58,281.587 190.702,281.295 185.275,279.263 C185.709,274.879 184.98,270.623 181.712,267.196 C179.745,265.13 177.205,263.895 174.576,262.911 C174.428,262.571 174.301,262.257 174.165,261.931 C174.252,261.633 174.334,261.332 174.389,261.016 L174.389,261.016 Z" id="Shape" fill="#FFFFFF"></path>
                    <path d="M185.342,279.149 C185.66,278.229 185.893,277.291 186.126,276.347 C186.381,275.316 187.631,272.395 186.088,275.73 C186.484,274.876 186.743,273.996 186.934,273.109 C211.416,273.078 232.715,256.269 228.596,220.93 C231.801,216.675 236.292,229.51 236.292,229.51 C236.292,229.51 248.549,265.098 216.895,278.891 C206.348,283.491 197.028,286.788 194.828,285.457 C190.243,286.388 186.108,283.194 184.561,281.094 C184.85,280.449 185.121,279.803 185.342,279.149 L185.342,279.149 Z" id="Shape" fill="#C9C9C9"></path>
                    <path d="M174.827,255.892 C174.793,252.909 174.18,250.02 172.742,247.141 C172.64,246.943 172.523,246.753 172.416,246.56 C181.836,246.479 192.687,245.577 201.926,241.879 C212.08,237.817 224.783,223.92 226.967,207.592 C226.967,207.592 246.092,222.35 240.472,253.938 C235.193,283.6 210.375,293.27 182.068,294.906 C182.053,294.714 185.253,288.106 184.241,284.061 C200.311,285.229 218.286,279.019 226.968,264.741 C234.907,251.673 232.68,229.362 229.415,226.093 C221.454,251.222 192.795,256.33 174.827,255.892 L174.827,255.892 Z" id="Shape" fill="#463014"></path>
                    <g transform="translate(58.000000, 255.000000)" id="Shape" fill="#463014">
                        <path d="M128.258,8.332 C124.876,4.676 118.658,0.318 104.321,0.318 C104.321,0.318 77.139,0.302 66.133,0.295 L66.133,0.295 L66.086,0.295 L66.039,0.295 L66.039,0.295 C55.034,0.303 27.845,0.318 27.845,0.318 C13.512,0.318 7.294,4.677 3.91,8.332 C-1.019,13.653 -1.792,21.055 1.618,30.307 C10.679,54.933 23.412,79.952 66.037,79.987 L66.037,79.991 C66.053,79.991 66.067,79.987 66.084,79.987 C66.099,79.987 66.114,79.991 66.131,79.991 L66.131,79.987 C108.752,79.95 121.485,54.933 130.549,30.307 C133.959,21.055 133.184,13.653 128.258,8.332 L128.258,8.332 Z M121.622,28.58 C117.305,40.946 105.703,70.878 66.083,70.93 C26.458,70.878 14.86,40.947 10.543,28.58 C8.154,21.719 8.336,16.642 11.102,13.488 C12.991,11.332 17.331,8.759 27.222,8.759 L37.555,8.755 C45.178,8.748 54.749,8.74 66.084,8.736 C77.415,8.74 86.991,8.748 94.612,8.755 L104.941,8.759 C114.835,8.759 119.174,11.331 121.064,13.488 C123.827,16.645 124.011,21.719 121.622,28.58 L121.622,28.58 Z"></path>
                    </g>
                    <path d="M171.863,237.902 C176.957,252.851 187.361,264.949 187.361,264.949 C187.361,264.949 173.049,264.298 172.258,261.765 C171.677,259.898 159.337,231.013 154.601,197.176 C159.053,204.495 171.426,236.622 171.863,237.902 L171.863,237.902 Z" id="Shape" fill="#463014"></path>
                </g>
            </g>
        </g>
    </g>
</svg>
